<!--
✒ Metadata
    - Title: TextManLogo (textMan Edition - v1.0)
    - File Name: logo-textMan.svg
    - Relative Path: shared/assets/logo-textMan.svg
    - Artifact Type: data
    - Version: 1.0.0
    - Date: 2026-07-22
    - Update: Wednesday, July 22, 2026
    - Author: Dennis 'dendogg' Smaltz
    - A.I. Acknowledgement: Anthropic - Claude Opus 4.8
    - Signature: ︻デ═─── ✦ ✦ ✦ | Aim Twice, Shoot Once!

✒ Description:
    textMan's identity mark — a fountain-pen nib angled up-left, drawn with
    fill="currentColor" so it inherits theme colors when inlined. This mark
    belongs to textMan specifically; the hub uses its own placeholder
    (logo-toolMan.svg).

✒ Other Important Information:
    - Dependencies: none (inline-able SVG, fill-based, currentColor)
    - Compatible platforms: all evergreen browsers
---------
-->
<svg class="svg-icon" id="svg-logo" width="40" height="40" version="1.1" viewBox="0 0 20 20" xmlns="http://www.w3.org/2000/svg">
    <path
        d="m18.858 0.087595c-0.068533 0.080388-0.09085 0.19042-0.059081 0.29118-0.14604 0.11305-0.2958 0.21943-0.44882 0.31982-2.7005 1.5776-6.341 1.7177-9.4146 1.2188-0.088204-0.014314-0.19748 0.035231-0.24406 0.11154-1.7923 2.9363-3.4305 5.9718-5.1226 8.9685-0.047453 0.08404-0.14253 0.09763-0.21229 0.0304l-1.0931-1.0538c-0.069801-0.067202-0.17989-0.064333-0.24598 0.00658-0.23531 0.25231-0.47053 0.5047-0.70595 0.75691-0.066127 0.07084-0.063028 0.1826 0.00692 0.24964 0.1655 0.15857 0.33092 0.31723 0.49641 0.47582 0.069973 0.06703 0.063138 0.16761-0.015209 0.22461l-1.7383 1.2646a0.14992 0.15001 0 0 0-0.0179 0.22735l6.7659 6.7761a0.1511 0.15119 0 0 0 0.2283-0.01685l1.2798-1.7294c0.057647-0.0779 0.15869-0.08431 0.22571-0.01432 0.15848 0.1656 0.31705 0.33111 0.47555 0.49669 0.066989 0.07001 0.17869 0.07309 0.24948 7e-3 0.25204-0.23558 0.50426-0.47095 0.75646-0.70637 0.0708-0.06614 0.07376-0.1763 0.0066-0.2461l-1.0532-1.0939c-0.06721-0.06981-0.054722-0.16741 0.028112-0.21766 2.9399-1.7834 6.0876-3.238 8.9688-5.1164 0.07462-0.04864 0.12447-0.16013 0.11208-0.24869-0.44224-3.1611-0.43973-6.6048 1.2144-9.4194 0.10034-0.15311 0.20644-0.30308 0.31964-0.44908 0.10071 0.031787 0.21068 0.00946 0.29102-0.059117 0.13824-0.1403 0.11286-0.40525-0.07696-0.47005-0.01756-0.005983-0.04255 0.002647-0.05506 0.016694-1.7485 1.964-3.5702 3.8426-5.4854 5.6395-0.0652 0.061164-0.08469 0.17504-0.04962 0.25727 0.21094 0.49455 0.32039 1.1954-0.03807 1.5311-0.43682 0.40498-1.3051 0.37868-1.9979-0.32159-0.68594-0.67621-0.73588-1.5515-0.32141-1.9991 0.3357-0.35894 1.0365-0.24888 1.5303-0.038056 0.08214 0.035075 0.1944 0.014165 0.25389-0.05256 1.7483-1.9609 3.724-3.6958 5.6417-5.4867 0.01281-0.011962 0.02041-0.036746 0.01432-0.054527-0.06503-0.18964-0.32962-0.21472-0.46967-0.076567z"
        fill="currentColor" stroke-width=".56009" />
</svg>